<svg id="logo" xmlns="http://www.w3.org/2000/svg" width="5.14in" height="3.15in" viewBox="0 0 370.16 226.63">
  <defs>
    <style>
      .cls-1, .cls-10, .cls-12, .cls-15, .cls-3, .cls-5, .cls-8, .cls-9 {
        fill: #05386b;
      }

      .cls-2 {
        fill: none;
        stroke: #05386b;
        stroke-miterlimit: 10;
      }

      .cls-3 {
        font-size: 95.96px;
        letter-spacing: 0.02em;
      }

      .cls-10, .cls-12, .cls-15, .cls-3, .cls-5, .cls-8, .cls-9 {
        font-family: BebasNeue-Regular, Bebas Neue;
      }

      .cls-4 {
        letter-spacing: 0.08em;
      }

      .cls-5 {
        font-size: 38.39px;
        letter-spacing: 0.12em;
      }

      .cls-6 {
        letter-spacing: 0.11em;
      }

      .cls-7 {
        letter-spacing: 0.12em;
      }

      .cls-10, .cls-12, .cls-8, .cls-9 {
        font-size: 16.28px;
      }

      .cls-8 {
        letter-spacing: 0.02em;
      }

      .cls-9 {
        letter-spacing: 0.13em;
      }

      .cls-10 {
        letter-spacing: 0.03em;
      }

      .cls-11 {
        letter-spacing: 0.03em;
      }

      .cls-12 {
        letter-spacing: 0.17em;
      }

      .cls-13 {
        letter-spacing: 0.17em;
      }

      .cls-14 {
        letter-spacing: 0.17em;
      }

      .cls-15 {
        font-size: 90.51px;
      }
    </style>
  </defs>
  <g>
    <path class="cls-1" d="M181,183.48s-.58-9.56,10.43-10.43C191.4,173.05,191.69,183.77,181,183.48Z" transform="translate(0 0.01)"/>
    <path class="cls-1" d="M178,183.41s-9.54.87-10.74-10.11C167.27,173.3,178,172.69,178,183.41Z" transform="translate(0 0.01)"/>
    <path class="cls-1" d="M181.25,193s-.58-9.56,10.42-10.43C191.67,182.52,192,193.24,181.25,193Z" transform="translate(0 0.01)"/>
    <path class="cls-1" d="M178.28,192.88s-9.54.87-10.74-10.11C167.54,182.77,178.25,182.16,178.28,192.88Z" transform="translate(0 0.01)"/>
    <path class="cls-1" d="M181.75,202.62s-.58-9.56,10.43-10.43C192.18,192.19,192.47,202.91,181.75,202.62Z" transform="translate(0 0.01)"/>
    <path class="cls-1" d="M178.78,202.55s-9.53.87-10.73-10.11C168.05,192.44,178.75,191.83,178.78,202.55Z" transform="translate(0 0.01)"/>
    <path class="cls-1" d="M182.38,212.66s-.58-9.56,10.43-10.43C192.81,202.23,193.09,213,182.38,212.66Z" transform="translate(0 0.01)"/>
    <path class="cls-1" d="M179.41,212.59s-9.53.86-10.73-10.11C168.68,202.48,179.38,201.87,179.41,212.59Z" transform="translate(0 0.01)"/>
    <path class="cls-1" d="M179,179.32s-6.59-6.95,1.29-14.69C180.31,164.63,187.42,172.66,179,179.32Z" transform="translate(0 0.01)"/>
  </g>
  <path class="cls-2" d="M179.78,192.19s6.47,42-11.1,30.57" transform="translate(0 0.01)"/>
  <circle class="cls-2" cx="179.39" cy="206.99" r="19.14"/>
  <path class="cls-2" d="M181,211.52s-.59,16.4-6.16,14" transform="translate(0 0.01)"/>
  <path class="cls-1" d="M180.91,183.6s-.58-9.56,10.42-10.43C191.33,173.17,191.62,183.89,180.91,183.6Z" transform="translate(0 0.01)"/>
  <g>
    <text class="cls-3" transform="translate(68.39 115.49) scale(1 1.02)">THIC<tspan class="cls-4" x="138.09" y="0">KR</tspan></text>
    <text class="cls-5" transform="translate(75.4 154.77) scale(2.76 1.18)">L<tspan class="cls-6" x="18.01" y="0">A</tspan><tspan class="cls-7" x="37.51" y="0">WN</tspan></text>
    <polygon class="cls-1" points="247.62 46.93 254.9 46.93 254.9 54.05 250.75 63.34 247.01 63.34 250.05 54.55 247.52 54.55 247.62 46.93"/>
  </g>
  <text class="cls-8" transform="translate(0 104.1) scale(1 0.77)">grown<tspan x="1.37" y="15.58">in can</tspan></text>
  <text class="cls-9" transform="translate(330.95 107.77) scale(0.83 0.77)">100%<tspan x="-9.73" y="16.88">Organic</tspan></text>
  <text class="cls-10" transform="translate(76.15 211.1) scale(0.91 0.66)">grown fr<tspan class="cls-11" x="54.12" y="0">e</tspan><tspan x="60.55" y="0">sh</tspan></text>
  <text class="cls-12" transform="translate(215.7 210.97) scale(0.91 0.66)">BUY <tspan class="cls-13" x="33.4" y="0">L</tspan><tspan class="cls-14" x="41.75" y="0">OCAL</tspan></text>
  <g>
    <text class="cls-15" transform="matrix(0.32, -0.09, 0.05, 0.19, 124.68, 24.71)"> </text>
    <text class="cls-15" transform="translate(134.09 22.3) rotate(-10.53) scale(0.33 0.2)">S</text>
    <text class="cls-15" transform="matrix(0.33, -0.03, 0.02, 0.2, 149.89, 19.56)">C</text>
    <text class="cls-15" transform="matrix(0.33, -0.01, 0.01, 0.2, 166.25, 18.03)">O</text>
    <text class="cls-15" transform="translate(183.02 17.81) rotate(3.13) scale(0.33 0.2)">T</text>
    <text class="cls-15" transform="translate(199.05 18.9) rotate(7.93) scale(0.33 0.2)">T</text>
    <text class="cls-15" transform="matrix(0.32, 0.07, -0.04, 0.19, 214.67, 21.28)">S</text>
    <polygon class="cls-1" points="214.1 8.32 216 8.69 215.65 10.55 214.09 12.77 213.11 12.59 214.35 10.44 213.69 10.31 214.1 8.32"/>
  </g>
</svg>
