<svg id="Layer_1" data-name="Layer 1" xmlns="http://www.w3.org/2000/svg" viewBox="0 0 24.81 25.71"><defs><style>.cls-1{fill:none;stroke:#05386b;stroke-miterlimit:10;stroke-width:2px;}</style></defs><path class="cls-1" d="M4.58,11V23.45c.11.23-.39,1.37,2.8,1.23s11.23.12,11.25,0,1.18.37,1.18-2V11s-3.23-.07-3.73-1.84c0,0-4.09,5.4-8.18,0,0,0-3,5.6-6.76-.4,0,0-1.56-6.46,5.6-4.24,0,0,.56-3.58,5.1-3.53s5,3.43,5,3.43,6.51-2.87,7,3.08c0,0,.41,3.21-4,3.5" transform="translate(0 0)"/><path class="cls-1" d="M19.81,13.66h2.42s1.59-.3,1.58,1.72,0,4,0,4a1.84,1.84,0,0,1-2,1.82H4.58" transform="translate(0 0)"/></svg>